<?xml version="1.0" encoding="utf-8"?>
<!-- Generator: Adobe Illustrator 27.0.0, SVG Export Plug-In . SVG Version: 6.00 Build 0)  -->
<svg version="1.1" id="Layer_1" xmlns="http://www.w3.org/2000/svg" xmlns:xlink="http://www.w3.org/1999/xlink" x="0px" y="0px"
	 viewBox="0 0 512 512" style="enable-background:new 0 0 512 512;" xml:space="preserve">
<style type="text/css">
	.st0{fill:#FFFFFF;}
</style>
<g>
	<path class="st0" d="M57,119.8c1.3,0.9,2.8,1.4,4.3,1.4c2.2,0,4.4-1,5.8-3c34.6-47.4,85.4-80,143-91.6
		C261.3,16.3,313,23,359.6,45.9c3.6,1.8,7.9,0.3,9.7-3.3c1.8-3.6,0.3-7.9-3.3-9.7C316.4,8.6,261.6,1.5,207.3,12.5
		C146.1,24.8,92.2,59.3,55.5,109.7C53.1,112.9,53.8,117.4,57,119.8z"/>
	<path class="st0" d="M500.6,207.3c-0.1-0.5-0.2-1-0.4-1.4c-12.9-62.2-48.6-116.6-100.7-153.1c-3.3-2.3-7.8-1.5-10.1,1.8
		c-2.3,3.3-1.5,7.8,1.8,10.1c49.4,34.7,83.2,86.4,95.1,145.6c0.1,0.4,0.2,0.8,0.4,1.2c3.2,16.5,4.7,33.2,4.4,49.8
		c-0.1,4,3.1,7.3,7.1,7.4c0,0,0.1,0,0.1,0c3.9,0,7.1-3.1,7.2-7.1C505.9,243.4,504.2,225.2,500.6,207.3z"/>
	<path class="st0" d="M29,312.8c-0.8-3.3-1.6-6.6-2.2-10c-0.1-0.4-0.2-0.8-0.4-1.2C16.2,249.5,23.5,197,47.7,149.8
		c1.8-3.6,0.4-7.9-3.1-9.7c-3.6-1.8-7.9-0.4-9.7,3.1C9,193.7,1.2,249.9,12.5,305.7c0.1,0.5,0.2,0.9,0.4,1.4c0.6,3.1,1.3,6.2,2.1,9.2
		c0.8,3.3,3.8,5.5,7,5.5c0.6,0,1.2-0.1,1.7-0.2C27.6,320.6,30,316.7,29,312.8z"/>
	<path class="st0" d="M263.6,255.1c-0.8-3.9-4.6-6.4-8.5-5.7c-3.9,0.8-6.4,4.6-5.7,8.5c16.5,81.7-5.7,164.6-60.8,227.3
		c-2.6,3-2.3,7.6,0.7,10.2c1.4,1.2,3.1,1.8,4.8,1.8c2,0,4-0.8,5.4-2.5c27.8-31.6,48.4-69.8,59.6-110.2
		C270.9,342.1,272.4,298.5,263.6,255.1z"/>
	<path class="st0" d="M217.9,391.3c-3.7-1.5-7.9,0.4-9.4,4.1c-11.6,29.6-28.7,56.2-50.9,78.9c-2.8,2.9-2.7,7.4,0.1,10.2
		c1.4,1.4,3.2,2.1,5,2.1c1.9,0,3.8-0.7,5.2-2.2c23.6-24.2,41.7-52.3,54-83.7C223.4,396.9,221.6,392.7,217.9,391.3z"/>
	<path class="st0" d="M294.5,255.4l0.2-0.1l-1.3-6.3c-4.1-20.3-24-33.5-44.3-29.4c-20.3,4.1-33.5,24-29.4,44.3l1.4,6.9l0.1,0
		c5.1,29.6,4.5,59.3-1.8,88.6c-0.8,3.9,1.6,7.7,5.6,8.6c3.9,0.8,7.7-1.6,8.6-5.6c7.2-33.4,7.3-67.5,0.5-101.3l-0.6-3.1
		c-0.7-11.4,7.1-21.8,18.5-24.1c11.8-2.4,23.4,4.7,26.7,16l0.4,2.1c17.1,84.6-3.7,172.1-56.9,240.1c-2.5,3.1-1.9,7.7,1.2,10.1
		c1.3,1,2.9,1.5,4.4,1.5c2.1,0,4.3-1,5.7-2.8C288.1,431.3,310.1,342.1,294.5,255.4z"/>
	<path class="st0" d="M206.8,281.1c-0.5-4-4.2-6.7-8.1-6.2c-4,0.5-6.7,4.2-6.2,8.1c8.9,65.4-14.7,131.5-63.1,176.7
		c-2.9,2.7-3.1,7.3-0.3,10.2c1.4,1.5,3.3,2.3,5.3,2.3c1.8,0,3.5-0.6,4.9-1.9C191,421.8,216.3,351.1,206.8,281.1z"/>
	<path class="st0" d="M322.9,243.1c-3.6-17.7-13.9-33-28.9-43.1c-15.1-10-33.2-13.6-50.9-10c-26.6,5.4-47.4,26-53,52.6
		c-0.8,3.9,1.7,7.7,5.6,8.5c3.9,0.8,7.7-1.7,8.5-5.6c4.4-20.9,20.7-37.2,41.7-41.4c14-2.8,28.2,0,40.1,7.9
		c11.1,7.4,18.9,18.4,22.1,31.2l0.6,2.7c4.2,21,6.4,42.5,6.5,63.7c0,4,3.2,7.2,7.2,7.2c0,0,0,0,0,0c4,0,7.2-3.3,7.2-7.2
		c-0.1-20.1-1.9-40.5-5.6-60.5l0.1,0L322.9,243.1z"/>
	<path class="st0" d="M321.1,340.8c-4-0.4-7.5,2.4-8,6.4c-6,52.3-24.9,103.1-54.9,146.8c-2.3,3.3-1.4,7.8,1.9,10
		c1.2,0.9,2.7,1.3,4.1,1.3c2.3,0,4.6-1.1,6-3.1c31.2-45.7,51.1-98.7,57.3-153.4C327.9,344.8,325.1,341.2,321.1,340.8z"/>
	<path class="st0" d="M174.8,273l-1.1-5.3c-5.9-43.2,22.9-84.3,66.3-93.1c7.6-1.5,15.4-2,23-1.4c4,0.3,7.5-2.7,7.8-6.6
		c0.3-4-2.7-7.5-6.6-7.8c-9-0.7-18.1-0.1-27,1.7c-53,10.7-87.4,62.5-76.7,115.4l1.4,6.9l0,0c9.5,59.3-12.4,119.8-58.1,159.4
		c-3,2.6-3.3,7.2-0.7,10.2c1.4,1.7,3.4,2.5,5.5,2.5c1.7,0,3.4-0.6,4.7-1.8C164.6,408.5,188.2,339.5,174.8,273z"/>
	<path class="st0" d="M353.6,243L353.6,243l-1.1-5.8c-5.7-28.1-23.3-52.3-48.4-66.2c-3.5-1.9-7.9-0.7-9.8,2.8
		c-1.9,3.5-0.7,7.9,2.8,9.8c20.6,11.5,35.3,31,40.7,53.8l0.5,2.7c17.3,85.8,2.5,174.6-41.8,250c-2,3.4-0.9,7.9,2.6,9.9
		c1.1,0.7,2.4,1,3.6,1c2.5,0,4.9-1.3,6.2-3.6C354,420.5,369.8,330.4,353.6,243z"/>
	<path class="st0" d="M137.6,367.5c1.4-3.7-0.4-7.9-4.1-9.4c-3.7-1.4-7.9,0.4-9.4,4.1c-9,23.2-23.9,43.8-43.2,59.5
		c-3.1,2.5-3.5,7.1-1,10.2c1.4,1.7,3.5,2.6,5.6,2.6c1.6,0,3.2-0.5,4.6-1.6C111.3,415.6,127.7,393,137.6,367.5z"/>
	<path class="st0" d="M384.8,375.2c7.6-46.2,7-93-1.8-139.3l0,0l-0.9-4.7c-14-69.3-81.7-114.3-151-100.3
		c-69.3,14-114.3,81.7-100.3,151l1.3,6.4c1.9,12.4,2.2,25,0.9,37.4c-0.4,4,2.4,7.5,6.4,8c4,0.4,7.5-2.4,8-6.4
		c1.7-16,1-32.2-2.3-48.2l-1.1-5.6c-8.9-59.4,30.4-116.3,90-128.3c60.8-12.3,120.2,26.6,133.5,86.9l0.4,2.1
		c9.3,46.1,10.2,92.8,2.6,138.8c-0.6,3.9,2,7.7,6,8.3c0.4,0.1,0.8,0.1,1.2,0.1C381.1,381.2,384.2,378.7,384.8,375.2z"/>
	<path class="st0" d="M371.4,404.6c-3.9-1-7.8,1.3-8.8,5.1c-6.4,23.7-15.1,47-25.9,69.2c-1.7,3.6-0.3,7.9,3.3,9.7
		c1,0.5,2.1,0.7,3.2,0.7c2.7,0,5.2-1.5,6.5-4.1c11.2-23,20.2-47.1,26.8-71.8C377.5,409.6,375.3,405.7,371.4,404.6z"/>
	<path class="st0" d="M411.2,222.5L411.2,222.5c-4.8-21.6-13.7-41.5-26.6-59.2c-2.4-3.2-6.9-3.9-10.1-1.6c-3.2,2.3-3.9,6.9-1.6,10.1
		c12.2,16.8,20.5,35.7,24.7,56.2l0.3,1.6c15.2,76.9,8.5,156-19.4,228.8c-1.4,3.7,0.4,7.9,4.2,9.3c0.8,0.3,1.7,0.5,2.6,0.5
		c2.9,0,5.6-1.8,6.7-4.6c29.1-76,35.9-158.4,19.7-238.5L411.2,222.5z"/>
	<path class="st0" d="M225.2,101.3c-12,2.4-23.7,6.2-34.8,11.3c-3.6,1.7-5.2,6-3.6,9.6c1.7,3.6,6,5.2,9.6,3.6
		c10.1-4.6,20.7-8.1,31.6-10.3c42.5-8.6,86.1,2.3,119.7,29.8c1.3,1.1,3,1.6,4.6,1.6c2.1,0,4.2-0.9,5.6-2.6c2.5-3.1,2.1-7.6-1-10.2
		C320,103.8,271.9,91.8,225.2,101.3z"/>
	<path class="st0" d="M115.5,284.9l-1.2-5.7c-8.1-50.8,11.3-101.9,51.5-134.5c3.1-2.5,3.6-7.1,1.1-10.2c-2.5-3.1-7.1-3.6-10.2-1.1
		c-45.9,37.3-67.2,96.4-55.5,154.3l1,5.1c6.2,40.2-9.3,80.5-41.3,106.2c-3.1,2.5-3.6,7-1.1,10.2c1.4,1.8,3.5,2.7,5.6,2.7
		c1.6,0,3.2-0.5,4.5-1.6C107.6,380.1,125.1,332.1,115.5,284.9z"/>
	<path class="st0" d="M85.9,290.9l-0.8-3.9c-1.4-7.8-2.3-15.7-2.6-23.6c-0.2-4-3.5-7.1-7.5-6.9c-4,0.2-7.1,3.5-6.9,7.5
		c0.4,10,1.6,20,3.6,29.8l0.6,3c4.7,28.9-6,58.3-28.5,77.4c-3,2.6-3.4,7.1-0.8,10.2c1.4,1.7,3.5,2.6,5.5,2.6c1.7,0,3.3-0.6,4.7-1.7
		C80.4,362,93,325.9,85.9,290.9z"/>
	<path class="st0" d="M427.1,222.1l0.7,3.3c1.3,6.6,2.4,13.2,3.4,19.8c0.5,3.6,3.6,6.2,7.1,6.2c0.4,0,0.7,0,1.1-0.1
		c3.9-0.6,6.7-4.3,6.1-8.2c-1.2-7.9-2.6-15.9-4.2-23.8l-1.1-5.5l-0.1,0C417.2,115,319.3,51.5,219.2,71.7
		c-38,7.7-72.2,26.4-98.8,54.3c-26.1,27.2-43.3,61.2-49.7,98.2c-0.7,3.9,1.9,7.7,5.9,8.4c3.9,0.7,7.7-2,8.4-5.9
		c12.4-71.3,66.2-126.6,137.2-140.9C316.2,66.9,408.2,128,427.1,222.1z"/>
	<path class="st0" d="M441.9,275c-4,0.3-7,3.7-6.8,7.7c3,47.9-1.7,95.8-14.1,142.2c-1,3.9,1.3,7.8,5.1,8.8c0.6,0.2,1.2,0.2,1.9,0.2
		c3.2,0,6.1-2.1,7-5.4c12.8-47.9,17.7-97.4,14.6-146.9C449.3,277.8,445.9,274.7,441.9,275z"/>
	<path class="st0" d="M56.3,296.8l-0.8-3.8c-9.5-52.3,1.3-105.3,30.8-149.6C116.5,98,162.6,67,216.1,56.2
		c22.5-4.5,45.3-5.3,67.7-2.2c4,0.5,7.6-2.2,8.1-6.2c0.5-4-2.2-7.6-6.2-8.1c-24.1-3.3-48.5-2.4-72.5,2.4
		c-57.3,11.5-106.6,44.7-139,93.4c-32.3,48.7-43.8,107-32.2,164.3l0.5,2.3c2.5,16.1-2.5,32.6-13.6,44.6c-2.7,2.9-2.5,7.5,0.4,10.2
		c1.4,1.3,3.2,1.9,4.9,1.9c1.9,0,3.9-0.8,5.3-2.3C54.3,340.4,60.6,318.2,56.3,296.8z"/>
	<path class="st0" d="M469.7,207.1L469.7,207.1c-17.4-74.8-73.1-135.4-146.6-159c-3.8-1.2-7.9,0.9-9.1,4.7c-1.2,3.8,0.9,7.9,4.7,9.1
		c70.5,22.6,123.4,81.7,138.1,154.2l0.9,4.2c9.5,49.3,11.2,99.4,5,148.9c-0.5,4,2.3,7.6,6.3,8.1c0.3,0,0.6,0.1,0.9,0.1
		c3.6,0,6.7-2.7,7.2-6.3c6.5-52.4,4.5-105.5-6-157.7L469.7,207.1z"/>
</g>
</svg>
